<svg xmlns="http://www.w3.org/2000/svg" xmlns:xlink="http://www.w3.org/1999/xlink" width="1000" zoomAndPan="magnify" viewBox="0 0 750 149.999998" height="200" preserveAspectRatio="xMidYMid meet" version="1.0"><defs><g/><clipPath id="509dd7bebf"><path d="M 15 15.304688 L 135 15.304688 L 135 135.304688 L 15 135.304688 Z M 15 15.304688 " clip-rule="nonzero"/></clipPath></defs><g clip-path="url(#509dd7bebf)"><path fill="#1876f2" d="M 15 75.394531 C 15 43.789062 40.261719 15.304688 75.121094 15.304688 C 109.199219 15.304688 135 43.246094 135 75.214844 C 135 112.289062 104.761719 135.304688 75 135.304688 C 65.160156 135.304688 54.238281 132.660156 45.480469 127.492188 C 42.421875 125.628906 39.839844 124.25 36.539062 125.328125 L 24.421875 128.933594 C 21.359375 129.898438 18.601562 127.492188 19.5 124.25 L 23.519531 110.789062 C 24.179688 108.925781 24.058594 106.941406 23.101562 105.378906 C 17.941406 95.886719 15 85.488281 15 75.394531 Z M 74.878906 83.148438 C 70.621094 83.085938 67.199219 79.660156 67.199219 75.394531 C 67.199219 71.1875 70.679688 67.703125 74.878906 67.761719 C 79.140625 67.761719 82.558594 71.1875 82.558594 75.457031 C 82.558594 79.660156 79.140625 83.148438 74.878906 83.148438 Z M 102.539062 83.148438 C 98.28125 83.148438 94.859375 79.660156 94.859375 75.457031 C 94.859375 71.1875 98.28125 67.761719 102.539062 67.761719 C 106.800781 67.761719 110.21875 71.1875 110.21875 75.457031 C 110.21875 79.660156 106.800781 83.148438 102.539062 83.148438 Z M 39.539062 75.457031 C 39.539062 79.660156 43.019531 83.148438 47.21875 83.148438 C 51.480469 83.085938 54.898438 79.660156 54.898438 75.457031 C 54.898438 71.1875 51.480469 67.761719 47.21875 67.761719 C 42.960938 67.761719 39.539062 71.1875 39.539062 75.457031 Z M 39.539062 75.457031 " fill-opacity="1" fill-rule="evenodd"/></g><g fill="#000000" fill-opacity="1"><g transform="translate(152.144529, 106.866929)"><g><path d="M 50.046875 -45.484375 C 48.046875 -47.523438 45.84375 -49.144531 43.4375 -50.34375 C 41.03125 -51.550781 38.304688 -52.15625 35.265625 -52.15625 C 32.460938 -52.15625 29.816406 -51.613281 27.328125 -50.53125 C 24.835938 -49.445312 22.675781 -47.96875 20.84375 -46.09375 C 19.007812 -44.1875 17.554688 -41.988281 16.484375 -39.5 C 15.410156 -37.007812 14.875 -34.363281 14.875 -31.5625 C 14.875 -28.757812 15.414062 -26.113281 16.5 -23.625 C 17.59375 -21.132812 19.054688 -18.953125 20.890625 -17.078125 C 22.765625 -15.210938 24.925781 -13.734375 27.375 -12.640625 C 29.832031 -11.554688 32.460938 -11.015625 35.265625 -11.015625 C 37.078125 -11.015625 38.722656 -11.222656 40.203125 -11.640625 C 41.691406 -12.066406 43.085938 -12.644531 44.390625 -13.375 C 45.691406 -14.113281 46.925781 -14.957031 48.09375 -15.90625 C 49.257812 -16.851562 50.445312 -17.863281 51.65625 -18.9375 C 52.125 -19.238281 52.648438 -19.476562 53.234375 -19.65625 C 53.816406 -19.84375 54.410156 -19.9375 55.015625 -19.9375 C 55.609375 -19.9375 56.1875 -19.851562 56.75 -19.6875 C 57.320312 -19.519531 57.863281 -19.238281 58.375 -18.84375 C 59.101562 -18.375 59.679688 -17.753906 60.109375 -16.984375 C 60.546875 -16.210938 60.765625 -15.378906 60.765625 -14.484375 C 60.765625 -13.710938 60.625 -12.957031 60.34375 -12.21875 C 60.0625 -11.488281 59.601562 -10.804688 58.96875 -10.171875 C 57.300781 -8.296875 55.625 -6.679688 53.9375 -5.328125 C 52.25 -3.984375 50.46875 -2.875 48.59375 -2 C 44.882812 -0.300781 40.441406 0.546875 35.265625 0.546875 C 30.828125 0.546875 26.65625 -0.296875 22.75 -1.984375 C 18.84375 -3.671875 15.4375 -5.984375 12.53125 -8.921875 C 9.582031 -11.828125 7.265625 -15.234375 5.578125 -19.140625 C 3.898438 -23.046875 3.0625 -27.222656 3.0625 -31.671875 C 3.0625 -34.609375 3.441406 -37.445312 4.203125 -40.1875 C 4.972656 -42.925781 6.0625 -45.492188 7.46875 -47.890625 C 10.34375 -52.734375 14.195312 -56.578125 19.03125 -59.421875 C 21.40625 -60.828125 23.960938 -61.910156 26.703125 -62.671875 C 29.441406 -63.441406 32.296875 -63.828125 35.265625 -63.828125 C 37.578125 -63.828125 39.765625 -63.648438 41.828125 -63.296875 C 43.898438 -62.953125 45.859375 -62.394531 47.703125 -61.625 C 51.304688 -60.050781 54.78125 -57.476562 58.125 -53.90625 C 59.257812 -52.675781 59.84375 -51.257812 59.875 -49.65625 C 59.90625 -48.914062 59.757812 -48.160156 59.4375 -47.390625 C 59.125 -46.628906 58.632812 -45.960938 57.96875 -45.390625 C 57.5 -44.953125 56.960938 -44.597656 56.359375 -44.328125 C 55.765625 -44.066406 55.128906 -43.921875 54.453125 -43.890625 C 53.753906 -43.859375 53.03125 -43.96875 52.28125 -44.21875 C 51.53125 -44.46875 50.785156 -44.890625 50.046875 -45.484375 Z M 50.046875 -45.484375 "/></g></g></g><g fill="#000000" fill-opacity="1"><g transform="translate(215.968843, 106.866929)"><g><path d="M 3.0625 -24.25 C 3.0625 -27.65625 3.71875 -30.851562 5.03125 -33.84375 C 6.351562 -36.832031 8.132812 -39.445312 10.375 -41.6875 C 12.644531 -43.925781 15.265625 -45.695312 18.234375 -47 C 21.210938 -48.300781 24.40625 -48.953125 27.8125 -48.953125 C 31.21875 -48.953125 34.421875 -48.300781 37.421875 -47 C 40.429688 -45.695312 43.054688 -43.925781 45.296875 -41.6875 C 47.566406 -39.445312 49.34375 -36.832031 50.625 -33.84375 C 51.914062 -30.851562 52.5625 -27.65625 52.5625 -24.25 C 52.5625 -20.84375 51.914062 -17.632812 50.625 -14.625 C 49.34375 -11.625 47.566406 -9.003906 45.296875 -6.765625 C 43.054688 -4.523438 40.429688 -2.753906 37.421875 -1.453125 C 34.421875 -0.148438 31.21875 0.5 27.8125 0.5 C 24.40625 0.5 21.210938 -0.148438 18.234375 -1.453125 C 15.265625 -2.753906 12.644531 -4.523438 10.375 -6.765625 C 8.132812 -9.003906 6.351562 -11.625 5.03125 -14.625 C 3.71875 -17.632812 3.0625 -20.84375 3.0625 -24.25 Z M 14.984375 -24.25 C 14.984375 -22.414062 15.316406 -20.6875 15.984375 -19.0625 C 16.648438 -17.445312 17.550781 -16.035156 18.6875 -14.828125 C 19.851562 -13.628906 21.210938 -12.675781 22.765625 -11.96875 C 24.316406 -11.269531 26 -10.921875 27.8125 -10.921875 C 29.613281 -10.921875 31.296875 -11.269531 32.859375 -11.96875 C 34.429688 -12.675781 35.785156 -13.628906 36.921875 -14.828125 C 38.085938 -16.035156 38.992188 -17.445312 39.640625 -19.0625 C 40.296875 -20.6875 40.625 -22.414062 40.625 -24.25 C 40.625 -26.050781 40.296875 -27.757812 39.640625 -29.375 C 38.992188 -31 38.085938 -32.414062 36.921875 -33.625 C 35.785156 -34.820312 34.429688 -35.769531 32.859375 -36.46875 C 31.296875 -37.175781 29.613281 -37.53125 27.8125 -37.53125 C 26 -37.53125 24.316406 -37.175781 22.765625 -36.46875 C 21.210938 -35.769531 19.851562 -34.820312 18.6875 -33.625 C 17.550781 -32.414062 16.648438 -31 15.984375 -29.375 C 15.316406 -27.757812 14.984375 -26.050781 14.984375 -24.25 Z M 14.984375 -24.25 "/></g></g></g><g fill="#000000" fill-opacity="1"><g transform="translate(271.577158, 106.866929)"><g><path d="M 48.953125 -41.6875 C 50.921875 -39.445312 52.445312 -36.832031 53.53125 -33.84375 C 54.613281 -30.851562 55.15625 -27.65625 55.15625 -24.25 L 55.15625 -5.40625 C 55.15625 -3.875 54.609375 -2.523438 53.515625 -1.359375 C 52.972656 -0.816406 52.34375 -0.367188 51.625 -0.015625 C 50.90625 0.328125 50.128906 0.5 49.296875 0.5 C 48.460938 0.5 47.6875 0.335938 46.96875 0.015625 C 46.25 -0.296875 45.625 -0.71875 45.09375 -1.25 C 44.5625 -1.78125 44.132812 -2.40625 43.8125 -3.125 C 43.5 -3.84375 43.34375 -4.601562 43.34375 -5.40625 L 43.34375 -24.203125 C 43.34375 -26.003906 43.03125 -27.710938 42.40625 -29.328125 C 41.789062 -30.953125 40.929688 -32.363281 39.828125 -33.5625 C 38.722656 -34.769531 37.421875 -35.722656 35.921875 -36.421875 C 34.421875 -37.117188 32.769531 -37.46875 30.96875 -37.46875 C 29.195312 -37.46875 27.5 -37.097656 25.875 -36.359375 C 24.257812 -35.628906 22.816406 -34.664062 21.546875 -33.46875 C 20.304688 -32.226562 19.3125 -30.796875 18.5625 -29.171875 C 17.8125 -27.554688 17.4375 -25.863281 17.4375 -24.09375 L 17.4375 -5.40625 C 17.4375 -4.570312 17.273438 -3.796875 16.953125 -3.078125 C 16.640625 -2.359375 16.21875 -1.734375 15.6875 -1.203125 C 14.550781 -0.0664062 13.160156 0.5 11.515625 0.5 C 9.847656 0.5 8.445312 -0.0664062 7.3125 -1.203125 C 6.175781 -2.335938 5.609375 -3.738281 5.609375 -5.40625 L 5.609375 -45.75 C 5.609375 -47.882812 6.675781 -48.953125 8.8125 -48.953125 C 10.050781 -48.953125 11.117188 -48.523438 12.015625 -47.671875 C 12.921875 -46.816406 13.59375 -45.304688 14.03125 -43.140625 L 14.53125 -41.03125 C 16.601562 -43.132812 19.054688 -44.890625 21.890625 -46.296875 C 23.566406 -47.097656 25.304688 -47.734375 27.109375 -48.203125 C 28.910156 -48.671875 30.695312 -48.90625 32.46875 -48.90625 C 35.875 -48.90625 38.96875 -48.25 41.75 -46.9375 C 44.539062 -45.632812 46.941406 -43.882812 48.953125 -41.6875 Z M 48.953125 -41.6875 "/></g></g></g><g fill="#000000" fill-opacity="1"><g transform="translate(332.345522, 106.866929)"><g><path d="M 48.953125 -41.6875 C 50.921875 -39.445312 52.445312 -36.832031 53.53125 -33.84375 C 54.613281 -30.851562 55.15625 -27.65625 55.15625 -24.25 L 55.15625 -5.40625 C 55.15625 -3.875 54.609375 -2.523438 53.515625 -1.359375 C 52.972656 -0.816406 52.34375 -0.367188 51.625 -0.015625 C 50.90625 0.328125 50.128906 0.5 49.296875 0.5 C 48.460938 0.5 47.6875 0.335938 46.96875 0.015625 C 46.25 -0.296875 45.625 -0.71875 45.09375 -1.25 C 44.5625 -1.78125 44.132812 -2.40625 43.8125 -3.125 C 43.5 -3.84375 43.34375 -4.601562 43.34375 -5.40625 L 43.34375 -24.203125 C 43.34375 -26.003906 43.03125 -27.710938 42.40625 -29.328125 C 41.789062 -30.953125 40.929688 -32.363281 39.828125 -33.5625 C 38.722656 -34.769531 37.421875 -35.722656 35.921875 -36.421875 C 34.421875 -37.117188 32.769531 -37.46875 30.96875 -37.46875 C 29.195312 -37.46875 27.5 -37.097656 25.875 -36.359375 C 24.257812 -35.628906 22.816406 -34.664062 21.546875 -33.46875 C 20.304688 -32.226562 19.3125 -30.796875 18.5625 -29.171875 C 17.8125 -27.554688 17.4375 -25.863281 17.4375 -24.09375 L 17.4375 -5.40625 C 17.4375 -4.570312 17.273438 -3.796875 16.953125 -3.078125 C 16.640625 -2.359375 16.21875 -1.734375 15.6875 -1.203125 C 14.550781 -0.0664062 13.160156 0.5 11.515625 0.5 C 9.847656 0.5 8.445312 -0.0664062 7.3125 -1.203125 C 6.175781 -2.335938 5.609375 -3.738281 5.609375 -5.40625 L 5.609375 -45.75 C 5.609375 -47.882812 6.675781 -48.953125 8.8125 -48.953125 C 10.050781 -48.953125 11.117188 -48.523438 12.015625 -47.671875 C 12.921875 -46.816406 13.59375 -45.304688 14.03125 -43.140625 L 14.53125 -41.03125 C 16.601562 -43.132812 19.054688 -44.890625 21.890625 -46.296875 C 23.566406 -47.097656 25.304688 -47.734375 27.109375 -48.203125 C 28.910156 -48.671875 30.695312 -48.90625 32.46875 -48.90625 C 35.875 -48.90625 38.96875 -48.25 41.75 -46.9375 C 44.539062 -45.632812 46.941406 -43.882812 48.953125 -41.6875 Z M 48.953125 -41.6875 "/></g></g></g><g fill="#000000" fill-opacity="1"><g transform="translate(393.113875, 106.866929)"><g><path d="M 27.8125 0.5 C 24.40625 0.5 21.210938 -0.148438 18.234375 -1.453125 C 15.265625 -2.753906 12.644531 -4.523438 10.375 -6.765625 C 8.132812 -8.972656 6.351562 -11.578125 5.03125 -14.578125 C 3.71875 -17.585938 3.0625 -20.796875 3.0625 -24.203125 C 3.0625 -27.804688 3.726562 -31.117188 5.0625 -34.140625 C 6.394531 -37.160156 8.210938 -39.773438 10.515625 -41.984375 C 12.828125 -44.148438 15.5 -45.851562 18.53125 -47.09375 C 21.570312 -48.332031 24.796875 -48.953125 28.203125 -48.953125 C 31.609375 -48.953125 34.789062 -48.347656 37.75 -47.140625 C 40.707031 -45.941406 43.285156 -44.273438 45.484375 -42.140625 C 47.691406 -39.992188 49.429688 -37.453125 50.703125 -34.515625 C 51.972656 -31.578125 52.609375 -28.390625 52.609375 -24.953125 C 52.609375 -23.285156 52.171875 -22.164062 51.296875 -21.59375 C 50.429688 -21.019531 48.945312 -20.734375 46.84375 -20.734375 L 15.1875 -20.734375 C 15.3125 -19.203125 15.734375 -17.75 16.453125 -16.375 C 17.171875 -15.007812 18.097656 -13.789062 19.234375 -12.71875 C 20.367188 -11.6875 21.671875 -10.84375 23.140625 -10.1875 C 24.609375 -9.539062 26.179688 -9.21875 27.859375 -9.21875 C 31.160156 -9.21875 34.066406 -10.285156 36.578125 -12.421875 C 37.273438 -12.828125 38.109375 -13.046875 39.078125 -13.078125 C 40.046875 -13.109375 40.984375 -12.957031 41.890625 -12.625 C 42.785156 -12.289062 43.550781 -11.75 44.1875 -11 C 44.820312 -10.25 45.140625 -9.304688 45.140625 -8.171875 C 45.140625 -6.867188 44.601562 -5.691406 43.53125 -4.640625 C 42.46875 -3.585938 41.101562 -2.675781 39.4375 -1.90625 C 37.757812 -1.164062 35.882812 -0.578125 33.8125 -0.140625 C 31.75 0.285156 29.75 0.5 27.8125 0.5 Z M 28.203125 -39.328125 C 26.566406 -39.328125 25 -39.039062 23.5 -38.46875 C 22 -37.90625 20.660156 -37.125 19.484375 -36.125 C 18.316406 -35.125 17.335938 -33.945312 16.546875 -32.59375 C 15.765625 -31.238281 15.273438 -29.757812 15.078125 -28.15625 L 40.6875 -28.15625 C 40.550781 -29.757812 40.125 -31.238281 39.40625 -32.59375 C 38.6875 -33.945312 37.773438 -35.125 36.671875 -36.125 C 35.535156 -37.125 34.238281 -37.90625 32.78125 -38.46875 C 31.332031 -39.039062 29.804688 -39.328125 28.203125 -39.328125 Z M 28.203125 -39.328125 "/></g></g></g><g fill="#000000" fill-opacity="1"><g transform="translate(448.772304, 106.866929)"><g><path d="M 45.390625 -42.078125 C 46.660156 -40.710938 47.296875 -39.3125 47.296875 -37.875 C 47.296875 -36.207031 46.675781 -34.851562 45.4375 -33.8125 C 44.875 -33.3125 44.207031 -32.953125 43.4375 -32.734375 C 42.664062 -32.523438 41.863281 -32.503906 41.03125 -32.671875 C 39.332031 -33.503906 37.613281 -34.328125 35.875 -35.140625 C 34.132812 -35.960938 32.265625 -36.554688 30.265625 -36.921875 C 28.359375 -37.160156 26.484375 -37.046875 24.640625 -36.578125 C 22.804688 -36.109375 21.171875 -35.320312 19.734375 -34.21875 C 18.296875 -33.113281 17.144531 -31.71875 16.28125 -30.03125 C 15.414062 -28.34375 14.984375 -26.398438 14.984375 -24.203125 C 14.984375 -22.066406 15.390625 -20.15625 16.203125 -18.46875 C 17.023438 -16.78125 18.140625 -15.382812 19.546875 -14.28125 C 20.941406 -13.144531 22.554688 -12.328125 24.390625 -11.828125 C 26.234375 -11.328125 28.191406 -11.207031 30.265625 -11.46875 C 31.867188 -11.632812 33.425781 -12.035156 34.9375 -12.671875 C 36.457031 -13.304688 37.804688 -14.160156 38.984375 -15.234375 C 39.742188 -15.628906 40.597656 -15.875 41.546875 -15.96875 C 42.503906 -16.070312 43.421875 -15.941406 44.296875 -15.578125 C 45.222656 -15.210938 45.96875 -14.585938 46.53125 -13.703125 C 47.101562 -12.816406 47.390625 -11.789062 47.390625 -10.625 C 47.390625 -9.289062 46.875 -7.960938 45.84375 -6.640625 C 44.8125 -5.316406 43.410156 -4.125 41.640625 -3.0625 C 39.828125 -2.019531 37.726562 -1.15625 35.34375 -0.46875 C 32.957031 0.207031 30.425781 0.546875 27.75 0.546875 C 24.34375 0.546875 21.144531 -0.101562 18.15625 -1.40625 C 15.164062 -2.707031 12.554688 -4.476562 10.328125 -6.71875 C 8.085938 -8.957031 6.316406 -11.578125 5.015625 -14.578125 C 3.710938 -17.585938 3.0625 -20.796875 3.0625 -24.203125 C 3.0625 -27.609375 3.710938 -30.804688 5.015625 -33.796875 C 6.316406 -36.785156 8.085938 -39.398438 10.328125 -41.640625 C 12.554688 -43.867188 15.164062 -45.632812 18.15625 -46.9375 C 21.144531 -48.25 24.34375 -48.90625 27.75 -48.90625 C 31.195312 -48.90625 34.488281 -48.316406 37.625 -47.140625 C 39.195312 -46.546875 40.640625 -45.828125 41.953125 -44.984375 C 43.273438 -44.148438 44.421875 -43.179688 45.390625 -42.078125 Z M 45.390625 -42.078125 "/></g></g></g><g fill="#000000" fill-opacity="1"><g transform="translate(499.270684, 106.866929)"><g><path d="M 32.96875 -46.390625 C 33.46875 -45.859375 33.867188 -45.238281 34.171875 -44.53125 C 34.472656 -43.832031 34.625 -43.066406 34.625 -42.234375 C 34.625 -41.429688 34.472656 -40.6875 34.171875 -40 C 33.867188 -39.320312 33.46875 -38.710938 32.96875 -38.171875 C 32.4375 -37.640625 31.816406 -37.222656 31.109375 -36.921875 C 30.410156 -36.617188 29.660156 -36.46875 28.859375 -36.46875 L 23.84375 -36.46875 L 23.84375 -5.40625 C 23.84375 -4.570312 23.679688 -3.796875 23.359375 -3.078125 C 23.046875 -2.359375 22.625 -1.734375 22.09375 -1.203125 C 20.957031 -0.0664062 19.570312 0.5 17.9375 0.5 C 16.226562 0.5 14.84375 -0.0664062 13.78125 -1.203125 C 12.644531 -2.335938 12.078125 -3.738281 12.078125 -5.40625 L 12.078125 -36.46875 L 7.3125 -36.46875 C 5.675781 -36.46875 4.320312 -37.035156 3.25 -38.171875 C 2.71875 -38.710938 2.300781 -39.320312 2 -40 C 1.695312 -40.6875 1.546875 -41.429688 1.546875 -42.234375 C 1.546875 -43.066406 1.695312 -43.832031 2 -44.53125 C 2.300781 -45.238281 2.71875 -45.859375 3.25 -46.390625 C 4.320312 -47.460938 5.675781 -48 7.3125 -48 L 12.078125 -48 L 12.078125 -58.375 C 12.078125 -60.007812 12.644531 -61.394531 13.78125 -62.53125 C 14.84375 -63.664062 16.226562 -64.234375 17.9375 -64.234375 C 19.570312 -64.234375 20.957031 -63.664062 22.09375 -62.53125 C 22.625 -61.988281 23.046875 -61.359375 23.359375 -60.640625 C 23.679688 -59.929688 23.84375 -59.175781 23.84375 -58.375 L 23.84375 -48 L 28.859375 -48 C 30.460938 -48 31.832031 -47.460938 32.96875 -46.390625 Z M 32.96875 -46.390625 "/></g></g></g><g fill="#000000" fill-opacity="1"><g transform="translate(535.290846, 106.866929)"><g><path d="M 27.8125 0.5 C 24.40625 0.5 21.210938 -0.148438 18.234375 -1.453125 C 15.265625 -2.753906 12.644531 -4.523438 10.375 -6.765625 C 8.132812 -8.972656 6.351562 -11.578125 5.03125 -14.578125 C 3.71875 -17.585938 3.0625 -20.796875 3.0625 -24.203125 C 3.0625 -27.804688 3.726562 -31.117188 5.0625 -34.140625 C 6.394531 -37.160156 8.210938 -39.773438 10.515625 -41.984375 C 12.828125 -44.148438 15.5 -45.851562 18.53125 -47.09375 C 21.570312 -48.332031 24.796875 -48.953125 28.203125 -48.953125 C 31.609375 -48.953125 34.789062 -48.347656 37.75 -47.140625 C 40.707031 -45.941406 43.285156 -44.273438 45.484375 -42.140625 C 47.691406 -39.992188 49.429688 -37.453125 50.703125 -34.515625 C 51.972656 -31.578125 52.609375 -28.390625 52.609375 -24.953125 C 52.609375 -23.285156 52.171875 -22.164062 51.296875 -21.59375 C 50.429688 -21.019531 48.945312 -20.734375 46.84375 -20.734375 L 15.1875 -20.734375 C 15.3125 -19.203125 15.734375 -17.75 16.453125 -16.375 C 17.171875 -15.007812 18.097656 -13.789062 19.234375 -12.71875 C 20.367188 -11.6875 21.671875 -10.84375 23.140625 -10.1875 C 24.609375 -9.539062 26.179688 -9.21875 27.859375 -9.21875 C 31.160156 -9.21875 34.066406 -10.285156 36.578125 -12.421875 C 37.273438 -12.828125 38.109375 -13.046875 39.078125 -13.078125 C 40.046875 -13.109375 40.984375 -12.957031 41.890625 -12.625 C 42.785156 -12.289062 43.550781 -11.75 44.1875 -11 C 44.820312 -10.25 45.140625 -9.304688 45.140625 -8.171875 C 45.140625 -6.867188 44.601562 -5.691406 43.53125 -4.640625 C 42.46875 -3.585938 41.101562 -2.675781 39.4375 -1.90625 C 37.757812 -1.164062 35.882812 -0.578125 33.8125 -0.140625 C 31.75 0.285156 29.75 0.5 27.8125 0.5 Z M 28.203125 -39.328125 C 26.566406 -39.328125 25 -39.039062 23.5 -38.46875 C 22 -37.90625 20.660156 -37.125 19.484375 -36.125 C 18.316406 -35.125 17.335938 -33.945312 16.546875 -32.59375 C 15.765625 -31.238281 15.273438 -29.757812 15.078125 -28.15625 L 40.6875 -28.15625 C 40.550781 -29.757812 40.125 -31.238281 39.40625 -32.59375 C 38.6875 -33.945312 37.773438 -35.125 36.671875 -36.125 C 35.535156 -37.125 34.238281 -37.90625 32.78125 -38.46875 C 31.332031 -39.039062 29.804688 -39.328125 28.203125 -39.328125 Z M 28.203125 -39.328125 "/></g></g></g><g fill="#000000" fill-opacity="1"><g transform="translate(590.949252, 106.866929)"><g><path d="M 50.859375 -62.984375 C 51.992188 -61.847656 52.5625 -60.441406 52.5625 -58.765625 L 52.5625 -2.65625 C 52.5625 -0.519531 51.472656 0.546875 49.296875 0.546875 C 48.097656 0.546875 47.03125 0.0976562 46.09375 -0.796875 C 45.15625 -1.703125 44.503906 -3.191406 44.140625 -5.265625 L 43.4375 -7.359375 C 43.300781 -7.128906 43.132812 -6.914062 42.9375 -6.71875 C 41 -4.476562 38.664062 -2.707031 35.9375 -1.40625 C 33.21875 -0.101562 30.15625 0.546875 26.75 0.546875 C 23.34375 0.546875 20.191406 -0.101562 17.296875 -1.40625 C 14.410156 -2.707031 11.914062 -4.476562 9.8125 -6.71875 C 7.707031 -8.957031 6.054688 -11.578125 4.859375 -14.578125 C 3.660156 -17.585938 3.0625 -20.796875 3.0625 -24.203125 C 3.0625 -27.609375 3.660156 -30.804688 4.859375 -33.796875 C 6.054688 -36.785156 7.707031 -39.398438 9.8125 -41.640625 C 11.914062 -43.867188 14.410156 -45.632812 17.296875 -46.9375 C 20.191406 -48.25 23.34375 -48.90625 26.75 -48.90625 C 29.289062 -48.90625 31.765625 -48.382812 34.171875 -47.34375 C 36.578125 -46.3125 38.765625 -44.875 40.734375 -43.03125 L 40.734375 -58.765625 C 40.734375 -59.597656 40.890625 -60.375 41.203125 -61.09375 C 41.523438 -61.8125 41.953125 -62.441406 42.484375 -62.984375 C 43.617188 -64.117188 45.003906 -64.6875 46.640625 -64.6875 C 48.316406 -64.6875 49.722656 -64.117188 50.859375 -62.984375 Z M 27.8125 -10.875 C 29.613281 -10.875 31.296875 -11.222656 32.859375 -11.921875 C 34.429688 -12.617188 35.800781 -13.570312 36.96875 -14.78125 C 38.144531 -15.976562 39.066406 -17.382812 39.734375 -19 C 40.398438 -20.625 40.734375 -22.359375 40.734375 -24.203125 C 40.734375 -26.003906 40.398438 -27.710938 39.734375 -29.328125 C 39.066406 -30.953125 38.144531 -32.363281 36.96875 -33.5625 C 35.800781 -34.769531 34.429688 -35.722656 32.859375 -36.421875 C 31.296875 -37.117188 29.613281 -37.46875 27.8125 -37.46875 C 26 -37.46875 24.316406 -37.117188 22.765625 -36.421875 C 21.210938 -35.722656 19.851562 -34.769531 18.6875 -33.5625 C 17.550781 -32.363281 16.648438 -30.953125 15.984375 -29.328125 C 15.316406 -27.710938 14.984375 -26.003906 14.984375 -24.203125 C 14.984375 -22.359375 15.316406 -20.625 15.984375 -19 C 16.648438 -17.382812 17.550781 -15.976562 18.6875 -14.78125 C 19.851562 -13.570312 21.210938 -12.617188 22.765625 -11.921875 C 24.316406 -11.222656 26 -10.875 27.8125 -10.875 Z M 27.8125 -10.875 "/></g></g></g><g fill="#1876f2" fill-opacity="1"><g transform="translate(649.617156, 106.866929)"><g><path d="M 18.4375 -57.921875 L 18.4375 -5.609375 C 18.4375 -4.003906 17.898438 -2.585938 16.828125 -1.359375 C 15.765625 -0.117188 14.332031 0.5 12.53125 0.5 C 11.625 0.5 10.800781 0.328125 10.0625 -0.015625 C 9.332031 -0.367188 8.71875 -0.847656 8.21875 -1.453125 C 7.175781 -2.648438 6.65625 -4.035156 6.65625 -5.609375 L 6.65625 -57.609375 C 6.59375 -58.316406 6.492188 -58.988281 6.359375 -59.625 C 6.296875 -59.957031 6.238281 -60.273438 6.1875 -60.578125 C 6.132812 -60.878906 6.109375 -61.175781 6.109375 -61.46875 C 6.109375 -62.269531 6.375 -62.859375 6.90625 -63.234375 C 7.207031 -63.429688 7.625 -63.585938 8.15625 -63.703125 C 8.695312 -63.816406 9.382812 -63.875 10.21875 -63.875 C 11.351562 -63.875 12.40625 -63.796875 13.375 -63.640625 C 14.34375 -63.492188 15.195312 -63.191406 15.9375 -62.734375 C 16.664062 -62.296875 17.25 -61.679688 17.6875 -60.890625 C 18.125 -60.109375 18.375 -59.117188 18.4375 -57.921875 Z M 18.4375 -57.921875 "/></g></g></g><g fill="#1876f2" fill-opacity="1"><g transform="translate(674.215074, 106.866929)"><g><path d="M 48.953125 -41.6875 C 50.921875 -39.445312 52.445312 -36.832031 53.53125 -33.84375 C 54.613281 -30.851562 55.15625 -27.65625 55.15625 -24.25 L 55.15625 -5.40625 C 55.15625 -3.875 54.609375 -2.523438 53.515625 -1.359375 C 52.972656 -0.816406 52.34375 -0.367188 51.625 -0.015625 C 50.90625 0.328125 50.128906 0.5 49.296875 0.5 C 48.460938 0.5 47.6875 0.335938 46.96875 0.015625 C 46.25 -0.296875 45.625 -0.71875 45.09375 -1.25 C 44.5625 -1.78125 44.132812 -2.40625 43.8125 -3.125 C 43.5 -3.84375 43.34375 -4.601562 43.34375 -5.40625 L 43.34375 -24.203125 C 43.34375 -26.003906 43.03125 -27.710938 42.40625 -29.328125 C 41.789062 -30.953125 40.929688 -32.363281 39.828125 -33.5625 C 38.722656 -34.769531 37.421875 -35.722656 35.921875 -36.421875 C 34.421875 -37.117188 32.769531 -37.46875 30.96875 -37.46875 C 29.195312 -37.46875 27.5 -37.097656 25.875 -36.359375 C 24.257812 -35.628906 22.816406 -34.664062 21.546875 -33.46875 C 20.304688 -32.226562 19.3125 -30.796875 18.5625 -29.171875 C 17.8125 -27.554688 17.4375 -25.863281 17.4375 -24.09375 L 17.4375 -5.40625 C 17.4375 -4.570312 17.273438 -3.796875 16.953125 -3.078125 C 16.640625 -2.359375 16.21875 -1.734375 15.6875 -1.203125 C 14.550781 -0.0664062 13.160156 0.5 11.515625 0.5 C 9.847656 0.5 8.445312 -0.0664062 7.3125 -1.203125 C 6.175781 -2.335938 5.609375 -3.738281 5.609375 -5.40625 L 5.609375 -45.75 C 5.609375 -47.882812 6.675781 -48.953125 8.8125 -48.953125 C 10.050781 -48.953125 11.117188 -48.523438 12.015625 -47.671875 C 12.921875 -46.816406 13.59375 -45.304688 14.03125 -43.140625 L 14.53125 -41.03125 C 16.601562 -43.132812 19.054688 -44.890625 21.890625 -46.296875 C 23.566406 -47.097656 25.304688 -47.734375 27.109375 -48.203125 C 28.910156 -48.671875 30.695312 -48.90625 32.46875 -48.90625 C 35.875 -48.90625 38.96875 -48.25 41.75 -46.9375 C 44.539062 -45.632812 46.941406 -43.882812 48.953125 -41.6875 Z M 48.953125 -41.6875 "/></g></g></g></svg>